<?xml version="1.0" standalone="no"?>
<!DOCTYPE svg PUBLIC "-//W3C//DTD SVG 20010904//EN"
 "http://www.w3.org/TR/2001/REC-SVG-20010904/DTD/svg10.dtd">
<svg version="1.0" xmlns="http://www.w3.org/2000/svg"
 width="512.000000pt" height="512.000000pt" viewBox="0 0 512.000000 512.000000"
 preserveAspectRatio="xMidYMid meet">
<metadata>
Created by potrace 1.14, written by Peter Selinger 2001-2017
</metadata>
<g transform="translate(0.000000,512.000000) scale(0.100000,-0.100000)"
fill="#000000" stroke="none">
<path d="M1205 3418 c-59 -20 -130 -41 -450 -137 -88 -26 -283 -85 -432 -131
l-273 -83 0 -69 0 -68 55 0 55 0 0 -215 0 -215 -55 0 -55 0 0 -172 0 -171 86
-114 87 -113 141 0 141 0 30 -46 c104 -157 328 -239 520 -189 107 28 229 117
280 203 l19 32 1198 0 1197 0 12 -22 c20 -38 69 -91 122 -130 209 -159 502
-121 668 87 l53 65 173 0 173 0 0 119 0 118 45 104 c25 57 52 109 60 115 10 7
15 28 15 58 0 46 0 46 -34 46 -25 0 -48 11 -83 38 -209 166 -374 255 -568 307
-137 37 -207 43 -495 44 l-265 1 -265 179 c-329 221 -424 271 -635 328 -180
48 -229 51 -865 52 -574 0 -597 -1 -655 -21z"/>
</g>
</svg>
